<svg width="52" height="52" viewBox="0 0 52 52" fill="none" xmlns="http://www.w3.org/2000/svg">
<path d="M38.4481 48.3566C38.2107 48.5152 37.894 48.5152 37.6562 48.3566L31.7169 44.9516V41.1502C31.7169 40.8335 31.9547 40.5168 32.2714 40.4375L35.439 39.4082C36.8643 40.8335 39.24 40.8335 40.6657 39.4082L43.8334 40.4375C44.15 40.5168 44.3875 40.8335 44.3875 41.1502V44.9516L38.4481 48.3566Z" fill="#23CA8E"/>
<path d="M16.2746 48.3566C16.0372 48.5152 15.7205 48.5152 15.4827 48.3566L14.2948 47.644V44.2389L18.0962 40.4375C18.1755 40.5168 18.3337 40.5168 18.4129 40.5168L21.6598 41.4672C21.9765 41.5461 22.214 41.8632 22.214 42.2591V44.9516L16.2746 48.3566Z" fill="#23CA8E"/>
<path d="M33.3007 25.1538L28.4704 27.9255L29.7371 24.5993C30.0542 23.7281 29.8164 22.7781 29.183 22.0654L28.0744 20.9564L29.579 19.4519L32.7466 20.4816C33.0633 20.5605 33.3007 20.8775 33.3007 21.1942V25.1538Z" fill="#23CA8E"/>
<path d="M24.3523 19.4519L25.8568 20.9564L24.7482 22.0654C24.1148 22.6988 23.877 23.7281 24.1937 24.5993L25.4609 27.9255L20.6301 25.1538V21.3524C20.6301 21.0357 20.8679 20.719 21.1846 20.6397L24.3523 19.4519Z" fill="#23CA8E"/>
<path d="M9.54338 42.2591C9.54338 41.9421 9.78118 41.6254 10.0979 41.4672L13.3448 40.5168C13.4241 40.5168 13.5822 40.4375 13.6615 40.4375L14.7701 41.5461L12.711 43.6052V46.7728L9.54338 44.9516V42.2591Z" fill="#23CA8E"/>
<path d="M5.18787 44.2389L14.6908 49.703C15.4038 50.099 16.3539 50.099 17.0665 49.703L26.9654 44.0804L36.8643 49.703C37.5773 50.099 38.5274 50.099 39.24 49.703L48.743 44.2389C49.456 43.843 49.9308 43.0511 49.9308 42.1799V30.6179C49.9308 29.7467 49.456 28.9548 48.743 28.5589L38.8441 22.8573V10.8201C38.8441 9.94894 38.3693 9.15703 37.6562 8.76108L28.1533 3.29697C27.4406 2.90101 26.4906 2.90101 25.7776 3.29697L16.2746 8.76108C15.562 9.15703 15.0868 9.94894 15.0868 10.8201V22.9362L5.18787 28.5589C4.47522 28.9548 4 29.7467 4 30.6179V42.2591C4 43.0511 4.47522 43.843 5.18787 44.2389ZM15.8787 40.4375L14.8493 39.4082C15.0079 39.0915 15.0868 38.6955 15.0868 38.2996V36.9532L14.3741 35.5279C14.2948 35.3694 14.2948 35.2901 14.2948 35.1319V33.627C14.2948 32.7562 15.0079 32.0432 15.8787 32.0432C16.7498 32.0432 17.4625 32.7562 17.4625 33.627V35.1319C17.4625 35.2901 17.4625 35.3694 17.3836 35.4486L16.6706 36.9532V38.2996C16.6706 38.6955 16.7498 39.0122 16.9084 39.4082L15.8787 40.4375ZM18.2544 38.2996V37.2699L18.8089 36.1613C18.9674 35.8446 19.0463 35.4486 19.0463 35.1319V33.627C19.0463 31.885 17.621 30.4594 15.8787 30.4594C14.1367 30.4594 12.711 31.885 12.711 33.627V35.1319C12.711 35.5279 12.7903 35.8446 12.9488 36.1613L13.5029 37.2699V38.2996C13.5029 38.6163 13.2655 38.933 12.9488 39.0915L10.4146 39.8041L10.8898 33.627C11.1272 30.8553 13.5029 28.7967 16.2746 29.0341C18.7296 29.1926 20.7094 31.1724 20.8679 33.627L21.3432 39.8041L18.8089 39.0915C18.4922 38.933 18.2544 38.6163 18.2544 38.2996ZM9.54338 42.2591C9.54338 41.9421 9.78118 41.6254 10.0979 41.4672L13.3448 40.5168C13.4241 40.5168 13.5822 40.4375 13.6615 40.4375L14.7701 41.5461L12.711 43.6052V46.7728L9.54338 44.9516V42.2591ZM16.2746 48.3566C16.0372 48.5152 15.7205 48.5152 15.4827 48.3566L14.2948 47.644V44.2389L18.0962 40.4375C18.1755 40.5168 18.3337 40.5168 18.4129 40.5168L21.6598 41.4672C21.9765 41.5461 22.214 41.8632 22.214 42.2591V44.9516L16.2746 48.3566ZM30.1331 12.2454C29.3412 11.9287 28.4704 11.9287 27.8366 12.4039L26.9654 12.8792L26.0946 12.4039C25.3816 12.008 24.5108 11.9287 23.7978 12.2454V10.6616C23.7978 10.1867 24.1149 9.86967 24.5897 9.86967H29.3412C29.8164 9.86967 30.1331 10.1867 30.1331 10.6616V12.2454ZM23.7978 14.6211C23.7978 14.067 24.273 13.5918 24.8275 13.5918C24.9856 13.5918 25.2234 13.6711 25.3816 13.7503L27.0447 14.7797L28.7078 13.7503C29.183 13.4333 29.8164 13.5918 30.0542 14.067C30.1331 14.2252 30.2123 14.3837 30.2123 14.6211V16.3635C30.2123 16.6009 30.1331 16.7595 29.9749 16.918L27.9951 18.8978L26.9654 19.8478L26.0946 18.9767L25.2234 18.1059L24.1149 16.9969C23.9563 16.8387 23.877 16.6802 23.877 16.4428V14.6211H23.7978ZM33.3007 25.1538L28.4704 27.9255L29.7371 24.5993C30.0542 23.7281 29.8164 22.7781 29.183 22.0654L28.0744 20.9564L29.579 19.4519L32.7466 20.4816C33.0633 20.5605 33.3007 20.8775 33.3007 21.1942V25.1538ZM26.9654 22.0654L28.0744 23.174C28.3118 23.4114 28.3911 23.7281 28.2326 24.0452L26.9654 27.4503L25.6987 24.0452C25.6194 23.7281 25.6987 23.4114 25.8568 23.174L26.9654 22.0654ZM24.3523 19.4519L25.8568 20.9564L24.7482 22.0654C24.1149 22.6988 23.877 23.7281 24.1937 24.5993L25.4609 27.9255L20.6301 25.1538V21.3524C20.6301 21.0357 20.8679 20.719 21.1846 20.6397L24.3523 19.4519ZM38.4481 48.3566C38.2107 48.5152 37.894 48.5152 37.6562 48.3566L31.7169 44.9516V41.1502C31.7169 40.8335 31.9547 40.5168 32.2714 40.4375L35.439 39.4082C36.8643 40.8335 39.24 40.8335 40.6657 39.4082L43.8334 40.4375C44.15 40.5168 44.3875 40.8335 44.3875 41.1502V44.9516L38.4481 48.3566ZM34.8845 33.627V33.4689L38.0522 32.8351L41.2198 33.4689V35.5279C41.2198 35.6861 41.1409 35.8446 41.0617 36.0027L39.7945 37.9825C39.0819 38.933 37.7355 39.1704 36.7854 38.3785C36.6269 38.2203 36.4684 38.1411 36.3895 37.9825L35.1223 36.0027C35.0431 35.8446 34.9638 35.6861 34.9638 35.5279V33.627H34.8845ZM41.2198 31.885L38.0522 31.2513L34.8845 31.885V30.4594C34.8845 29.9845 35.2016 29.6674 35.6764 29.6674H41.2198V31.885ZM47.9511 29.9053C48.1889 30.0634 48.347 30.3012 48.347 30.6179V42.2591C48.347 42.5758 48.1889 42.8133 47.9511 42.9718L45.9713 44.0011V41.0713C45.9713 40.0416 45.3379 39.1704 44.3086 38.8537L41.6158 37.9825L42.3288 36.8739C42.5662 36.478 42.7248 36.0027 42.7248 35.5279V28.0836H35.5976C34.2512 28.0836 33.2218 29.1133 33.2218 30.4594V35.5279C33.2218 36.0027 33.38 36.478 33.6178 36.8739L34.3304 37.9825L31.638 38.8537C30.7668 39.1704 30.1331 40.0416 30.1331 41.0713V44.0011L27.7573 42.6551V30.0634C27.9159 29.9845 27.9951 29.9845 28.1533 29.9053L38.0522 24.2826L47.9511 29.9053ZM17.0665 10.1075L26.5695 4.64337C26.8073 4.48483 27.124 4.48483 27.3614 4.64337L36.8643 10.1075C37.1021 10.2656 37.2603 10.5034 37.2603 10.8201V22.9362L34.8845 24.2826V21.3524C34.8845 20.3231 34.2512 19.4519 33.2218 19.1352L30.7668 18.3433L31.0042 18.1059C31.4795 17.6306 31.7169 17.0761 31.7169 16.4428V10.6616C31.7169 9.31557 30.6876 8.28585 29.3412 8.28585H24.5897C23.2437 8.28585 22.214 9.31557 22.214 10.6616V16.3635C22.214 16.9969 22.4518 17.6306 22.927 18.0266L23.1644 18.264L20.7094 19.0559C19.6801 19.3726 19.0463 20.2438 19.0463 21.2735V24.2033L16.6706 22.8573V10.8201C16.6706 10.5034 16.8291 10.2656 17.0665 10.1075ZM5.58382 30.6179C5.58382 30.3012 5.74236 30.0634 5.97978 29.9053L15.8787 24.2826L25.7776 29.9053C25.9361 29.9845 26.0154 29.9845 26.1735 30.0634V42.6551L23.7978 44.0011V42.2591C23.7978 41.5461 23.4811 40.9127 23.0059 40.5168L22.4518 33.4689C22.1351 29.826 18.9674 27.1336 15.4038 27.371C12.1569 27.6088 9.62265 30.2219 9.30596 33.4689L8.75147 40.5168C8.27663 40.992 7.95956 41.6254 7.95956 42.2591V44.0011L5.97978 42.8925C5.74236 42.734 5.58382 42.4966 5.58382 42.1799V30.6179Z" fill="#2E4369"/>
<path d="M18.2544 42.338H20.6301V43.9218H18.2544V42.338Z" fill="#2E4369"/>
<path d="M37.2603 41.5461H38.8441V43.13H37.2603V41.5461Z" fill="#2E4369"/>
<path d="M37.2603 44.7136H38.8441V46.2974H37.2603V44.7136Z" fill="#2E4369"/>
<path d="M40.4277 41.5461H42.8035V43.13H40.4277V41.5461Z" fill="#2E4369"/>
<path d="M30.9248 21.7483H32.5086V23.3321H30.9248V21.7483Z" fill="#2E4369"/>
</svg>
