<svg width="52" height="52" viewBox="0 0 52 52" fill="none" xmlns="http://www.w3.org/2000/svg">
<path d="M23.8452 25.1423L26.794 28.2012V32.2028H9.3895V18.1628H22.5348C21.5924 20.4781 22.0295 23.2587 23.8452 25.1423Z" fill="#1684D4"/>
<path d="M45.5637 16.1459C45.0015 15.5524 44.3216 15.079 43.5663 14.7551C42.8109 14.4312 41.9961 14.2636 41.1724 14.2628C40.3487 14.2636 39.5339 14.4312 38.7785 14.7551C38.0231 15.079 37.3432 15.5524 36.7809 16.1459L34.7047 18.2999L32.628 16.1459C32.0817 15.5694 31.4242 15.106 30.6941 14.7829C29.964 14.4597 29.1759 14.2834 28.3758 14.2642V13.8728C28.375 13.149 28.083 12.4551 27.5639 11.9433C27.0448 11.4315 26.341 11.1436 25.6069 11.1428H10.5762C9.84207 11.1436 9.13828 11.4315 8.61919 11.9433C8.1001 12.4551 7.80811 13.149 7.80727 13.8728V35.5546C7.80658 36.3324 8.05445 37.0906 8.5157 37.7216C8.97695 38.3526 9.62811 38.8242 10.3767 39.0696L14.7144 40.4951C16.9072 41.2108 19.2756 41.2108 21.4685 40.4951L25.8063 39.0696C26.555 38.8243 27.2062 38.3527 27.6676 37.7217C28.1289 37.0907 28.3769 36.3324 28.3762 35.5546V29.8425L33.914 35.5872V48.3878C33.914 48.4395 33.8931 48.4891 33.8561 48.5257C33.819 48.5623 33.7687 48.5828 33.7162 48.5828H25.4095C25.3571 48.5828 25.3068 48.5623 25.2697 48.5257C25.2326 48.4891 25.2117 48.4395 25.2117 48.3878V47.0228H26.0029C26.2127 47.0228 26.4139 46.9406 26.5623 46.7944C26.7106 46.6481 26.794 46.4497 26.794 46.2428V42.0337L26.8076 42.0294C28.1866 41.5775 29.3861 40.7087 30.2358 39.5464C31.0854 38.384 31.542 36.9873 31.5406 35.5546V34.5428H29.9584V35.5546C29.9594 36.6598 29.6072 37.7373 28.9518 38.6339C28.2963 39.5305 27.371 40.2007 26.3072 40.5493L25.7527 40.7316C25.5952 40.7834 25.4582 40.8827 25.3611 41.0155C25.264 41.1483 25.2118 41.3079 25.2117 41.4716V45.4628H23.6295V42.5116C23.6295 42.388 23.5997 42.2662 23.5426 42.1562C23.4855 42.0462 23.4027 41.9511 23.301 41.8788C23.1993 41.8066 23.0816 41.7592 22.9577 41.7406C22.8338 41.7219 22.7071 41.7326 22.5882 41.7717L21.9694 41.975C21.1923 42.2304 20.3912 42.4084 19.5781 42.5065C19.3863 42.5296 19.2097 42.6211 19.0817 42.7637C18.9536 42.9063 18.8829 43.0903 18.8828 43.2808V48.5828H17.3006V43.2808C17.3006 43.0903 17.2299 42.9063 17.1018 42.7637C16.9737 42.6211 16.7971 42.5296 16.6053 42.5065C15.7922 42.4084 14.9911 42.2304 14.214 41.975L13.5953 41.7716C13.4763 41.7325 13.3497 41.7218 13.2258 41.7405C13.1019 41.7591 12.9842 41.8065 12.8825 41.8787C12.7808 41.951 12.698 42.0461 12.6409 42.1561C12.5837 42.2661 12.554 42.3879 12.5539 42.5115V45.4628H10.9717V41.4716C10.9717 41.3078 10.9194 41.1483 10.8223 41.0155C10.7252 40.8827 10.5882 40.7834 10.4307 40.7316L9.87692 40.5495C8.81302 40.201 7.88755 39.5308 7.23198 38.6341C6.57642 37.7375 6.22409 36.6599 6.22505 35.5546V21.2828H4.64283V35.5546C4.64152 36.9874 5.09815 38.3841 5.94785 39.5465C6.79755 40.7088 7.99711 41.5776 9.37615 42.0295L9.3895 42.0338V46.2428C9.3895 46.4497 9.47285 46.6481 9.62121 46.7944C9.76957 46.9406 9.9708 47.0228 10.1806 47.0228H13.3451C13.5549 47.0228 13.7561 46.9406 13.9045 46.7944C14.0528 46.6481 14.1362 46.4497 14.1362 46.2428V43.5864C14.6559 43.7391 15.1842 43.8617 15.7184 43.9536V49.3628C15.7184 49.5697 15.8017 49.7681 15.9501 49.9144C16.0985 50.0606 16.2997 50.1428 16.5095 50.1428H19.674C19.8838 50.1428 20.085 50.0606 20.2334 49.9144C20.3817 49.7681 20.4651 49.5697 20.4651 49.3628V43.9536C20.9993 43.8617 21.5276 43.7391 22.0473 43.5864V46.2428C22.0473 46.4497 22.1306 46.6481 22.279 46.7944C22.4274 46.9406 22.6286 47.0228 22.8384 47.0228H23.6295V48.3878C23.6301 48.8531 23.8178 49.2992 24.1515 49.6282C24.4852 49.9572 24.9376 50.1423 25.4095 50.1428H33.7162C34.1881 50.1423 34.6406 49.9572 34.9742 49.6282C35.3079 49.2992 35.4957 48.8531 35.4962 48.3878V35.5861L42.3987 28.4259L41.2516 27.351L34.7045 34.1431L24.9921 24.0675C23.1726 22.1798 23.1726 19.1084 24.9921 17.2208C25.406 16.7799 25.9079 16.4281 26.4663 16.1876C27.0246 15.947 27.6274 15.8228 28.2367 15.8228C28.846 15.8228 29.4488 15.947 30.0072 16.1876C30.5655 16.4281 31.0674 16.7799 31.4813 17.2208L34.1315 19.9695C34.2054 20.0462 34.2944 20.1073 34.393 20.149C34.4916 20.1908 34.5978 20.2123 34.7051 20.2123C34.8124 20.2123 34.9186 20.1908 35.0172 20.149C35.1158 20.1073 35.2047 20.0462 35.2787 19.9695L37.9289 17.2208C38.3428 16.7799 38.8447 16.4281 39.403 16.1876C39.9614 15.947 40.5641 15.8228 41.1735 15.8228C41.7828 15.8228 42.3856 15.947 42.9439 16.1876C43.5023 16.4281 44.0042 16.7799 44.4181 17.2208C46.2376 19.1084 46.2376 22.1798 44.4181 24.0675L42.3572 26.2054L43.5043 27.2802L45.5653 25.1423C47.9546 22.662 47.9546 18.6262 45.5637 16.1459ZM25.3064 37.5895L20.9686 39.015C19.1005 39.625 17.0828 39.625 15.2148 39.015L10.8771 37.5895C10.4437 37.4475 10.0667 37.1745 9.79963 36.8092C9.53259 36.4439 9.38908 36.0049 9.3895 35.5546V33.7628H26.794V35.5546C26.7944 36.0049 26.6509 36.4439 26.3838 36.8092C26.1168 37.1745 25.7398 37.4475 25.3064 37.5895ZM23.8452 25.1423L26.794 28.2012V32.2028H9.3895V18.1628H22.5348C21.5924 20.4781 22.0295 23.2587 23.8452 25.1423ZM23.8452 16.1459C23.7035 16.2931 23.5702 16.4454 23.4453 16.6028H9.3895V13.8728C9.38984 13.5626 9.51497 13.2652 9.73744 13.0459C9.95991 12.8265 10.2615 12.7032 10.5762 12.7028H25.6073C25.9219 12.7032 26.2236 12.8265 26.446 13.0459C26.6685 13.2652 26.7936 13.5626 26.794 13.8728V14.4359C25.6654 14.7162 24.642 15.3096 23.8452 16.1459Z" fill="#2E4369"/>
<path d="M6.22788 13.5307C6.22917 12.3701 6.68882 11.2574 7.506 10.4367C8.32317 9.61602 9.43113 9.1544 10.5868 9.15311H25.6449C26.7416 9.15721 27.7968 9.57468 28.6017 10.3229C29.4065 11.0711 29.9024 12.0955 29.991 13.1933L31.5714 13.0721C31.4507 11.5749 30.7747 10.1777 29.6772 9.15714C28.5797 8.13658 27.1406 7.56705 25.6449 7.56128H24.4561C24.4546 6.29518 23.9532 5.08135 23.0617 4.18608C22.1703 3.29081 20.9616 2.78721 19.7009 2.78577H16.5308C15.2701 2.78721 14.0614 3.29081 13.1699 4.18608C12.2785 5.08135 11.777 6.29518 11.7756 7.56128H10.5868C9.0109 7.56307 7.50007 8.19256 6.38574 9.31165C5.27142 10.4307 4.64461 11.948 4.64282 13.5307V19.5001H6.22788V13.5307ZM16.5308 4.3776H19.7009C20.5414 4.37855 21.3471 4.71428 21.9415 5.31113C22.5358 5.90798 22.8701 6.71721 22.871 7.56128H13.3606C13.3616 6.71721 13.6959 5.90798 14.2902 5.31113C14.8845 4.71428 15.6903 4.37855 16.5308 4.3776Z" fill="#2E4369"/>
<path d="M19.5001 5.57141H16.7144V6.49998H19.5001V5.57141Z" fill="#2E4369"/>
<path d="M20.4285 23.5238C20.4285 23.3186 20.347 23.1218 20.2019 22.9767C20.0568 22.8315 19.86 22.75 19.6547 22.75H18.1071V21.2024C18.1071 20.9972 18.0256 20.8003 17.8805 20.6552C17.7353 20.5101 17.5385 20.4286 17.3333 20.4286H14.2381C14.0328 20.4286 13.836 20.5101 13.6909 20.6552C13.5458 20.8003 13.4643 20.9972 13.4643 21.2024V22.75H11.9166C11.7114 22.75 11.5146 22.8315 11.3695 22.9767C11.2243 23.1218 11.1428 23.3186 11.1428 23.5238V26.6191C11.1428 26.8243 11.2243 27.0211 11.3695 27.1662C11.5146 27.3113 11.7114 27.3929 11.9166 27.3929H13.4643V28.9405C13.4643 29.1457 13.5458 29.3425 13.6909 29.4877C13.836 29.6328 14.0328 29.7143 14.2381 29.7143H17.3333C17.5385 29.7143 17.7353 29.6328 17.8805 29.4877C18.0256 29.3425 18.1071 29.1457 18.1071 28.9405V27.3929H19.6547C19.86 27.3929 20.0568 27.3113 20.2019 27.1662C20.347 27.0211 20.4285 26.8243 20.4285 26.6191V23.5238ZM18.8809 25.8453H17.3333C17.1281 25.8453 16.9312 25.9268 16.7861 26.0719C16.641 26.217 16.5595 26.4138 16.5595 26.6191V28.1667H15.0119V26.6191C15.0119 26.4138 14.9303 26.217 14.7852 26.0719C14.6401 25.9268 14.4433 25.8453 14.2381 25.8453H12.6904V24.2976H14.2381C14.4433 24.2976 14.6401 24.2161 14.7852 24.071C14.9303 23.9259 15.0119 23.7291 15.0119 23.5238V21.9762H16.5595V23.5238C16.5595 23.7291 16.641 23.9259 16.7861 24.071C16.9312 24.2161 17.1281 24.2976 17.3333 24.2976H18.8809V25.8453Z" fill="#2E4369"/>
<path d="M25.0713 28.7858H20.4285V30.6429H25.0713V28.7858Z" fill="#2E4369"/>
<path d="M37.2521 24.0527L36.2824 26.4077L33.2576 21.7063C33.1856 21.5944 33.0843 21.5031 32.9639 21.4419C32.8436 21.3807 32.7086 21.3518 32.5729 21.358C32.4372 21.3643 32.3057 21.4055 32.1919 21.4776C32.078 21.5496 31.986 21.6497 31.9252 21.7678L30.6072 24.3286H28.7856V25.8143H31.0798C31.2218 25.8143 31.361 25.7759 31.4818 25.7034C31.6026 25.6308 31.7002 25.5271 31.7637 25.4037L32.6834 23.6169L35.7842 28.4362C35.8529 28.5431 35.9485 28.6313 36.0619 28.6925C36.1754 28.7536 36.303 28.7857 36.4327 28.7857C36.4554 28.7857 36.4781 28.7847 36.5009 28.7829C36.6416 28.7707 36.7761 28.7208 36.8894 28.6388C37.0028 28.5569 37.0905 28.446 37.1429 28.3186L38.4799 25.0715H41.7856V23.5857H37.9621C37.8093 23.5857 37.6599 23.6302 37.5334 23.7135C37.4068 23.7967 37.3088 23.9149 37.2521 24.0527Z" fill="#2E4369"/>
</svg>
