<svg width="52" height="52" viewBox="0 0 52 52" fill="none" xmlns="http://www.w3.org/2000/svg">
<path d="M23.0879 34.4111L20.7105 36.8054C20.6797 36.8363 20.6446 36.8429 20.6204 36.8429H20.6203C20.5962 36.8429 20.5611 36.8365 20.5304 36.8059L19.6474 35.9227C19.3994 35.6746 18.9972 35.6747 18.7492 35.9226C18.5011 36.1707 18.5011 36.5729 18.7492 36.8208L19.6322 37.704C19.8962 37.9679 20.247 38.1133 20.6202 38.1133H20.6226C20.9968 38.1126 21.3481 37.9661 21.6119 37.7005L23.9894 35.306C24.2365 35.0571 24.2351 34.655 23.9862 34.4078C23.7371 34.1607 23.3351 34.1622 23.0879 34.4111ZM23.9862 17.1153C23.7372 16.8681 23.3351 16.8695 23.0879 17.1185L20.7105 19.5129C20.6797 19.5438 20.6446 19.5503 20.6205 19.5503H20.6203C20.5962 19.5503 20.5611 19.5439 20.5304 19.5132L19.6474 18.6301C19.3994 18.382 18.9972 18.382 18.7492 18.63C18.5011 18.8781 18.5011 19.2802 18.7492 19.5282L19.6322 20.4114C19.8962 20.6754 20.247 20.8206 20.6203 20.8206H20.6228C20.9969 20.82 21.3482 20.6734 21.612 20.4079L23.9895 18.0135C24.2365 17.7646 24.2351 17.3625 23.9862 17.1153ZM23.9862 25.7616C23.7372 25.5144 23.3351 25.5158 23.0879 25.7648L20.7105 28.1592C20.6797 28.1901 20.6446 28.1966 20.6205 28.1966H20.6203C20.5962 28.1966 20.5611 28.1901 20.5304 28.1595L19.6474 27.2764C19.3994 27.0282 18.9972 27.0283 18.7492 27.2763C18.5011 27.5243 18.5011 27.9265 18.7492 28.1745L19.6322 29.0577C19.8962 29.3217 20.247 29.4669 20.6203 29.4669H20.6228C20.9969 29.4662 21.3482 29.3197 21.612 29.0541L23.9895 26.6598C24.2365 26.4109 24.2351 26.0088 23.9862 25.7616ZM20.0047 16.4052H17.9345C17.164 16.4052 16.5371 17.032 16.5371 17.8025V22.3839C16.5371 23.1544 17.164 23.7812 17.9345 23.7812H22.5158C23.2863 23.7812 23.9132 23.1544 23.9132 22.3839V20.7767C23.9132 20.4258 23.6288 20.1415 23.278 20.1415C22.9272 20.1415 22.6429 20.4258 22.6429 20.7767V22.3839C22.6429 22.4539 22.5859 22.5109 22.5158 22.5109H17.9345C17.8644 22.5109 17.8074 22.4539 17.8074 22.3839V17.8025C17.8074 17.7325 17.8644 17.6755 17.9345 17.6755H20.0047C20.3555 17.6755 20.6399 17.3912 20.6399 17.0403C20.6399 16.6895 20.3555 16.4052 20.0047 16.4052ZM39.4838 5.63756H36.5723C36.2215 5.63756 35.9371 5.92186 35.9371 6.27272C35.9371 6.62358 36.2215 6.90788 36.5723 6.90788H39.4838C40.529 6.90788 41.3792 7.75814 41.3792 8.80319V44.5278C41.3792 45.5729 40.5289 46.4232 39.4838 46.4232H12.9156C11.8705 46.4232 11.0203 45.5729 11.0203 44.5278V8.80319C11.0203 7.75814 11.8706 6.90788 12.9156 6.90788H17.7261V8.16803H13.3374C12.7546 8.16803 12.2805 8.6422 12.2805 9.22485V35.381C12.2805 35.7318 12.5648 36.0161 12.9156 36.0161C13.2664 36.0161 13.5508 35.7318 13.5508 35.381V9.43835H16.5688C16.4993 9.63567 16.461 9.84756 16.461 10.0683V11.83C16.461 12.8779 17.3135 13.7304 18.3613 13.7304H34.0381C35.0859 13.7304 35.9384 12.8779 35.9384 11.83V10.0684C35.9384 9.84764 35.9001 9.63567 35.8306 9.43843H38.8486V37.2863H35.5526C33.8072 37.2863 32.3872 38.7065 32.3872 40.4522V43.7488H13.5508V37.9217C13.5508 37.5708 13.2664 37.2865 12.9156 37.2865C12.5648 37.2865 12.2805 37.5708 12.2805 37.9217V43.9622C12.2805 44.545 12.7546 45.019 13.3374 45.019H33.0222C33.191 45.0193 33.3525 44.951 33.4714 44.833L33.4729 44.8314L39.933 38.3705C40.0411 38.2617 40.1072 38.1149 40.1171 37.9619C40.1174 37.9562 40.1191 9.23925 40.1191 9.22485C40.1191 8.64211 39.6449 8.16803 39.0622 8.16803H34.6734V6.40594C34.6733 5.26316 33.7437 4.33337 32.601 4.33337H19.7984C18.9272 4.33337 18.1803 4.87419 17.8744 5.63756H12.9156C11.17 5.63756 9.75 7.05769 9.75 8.80319V44.5278C9.75 46.2733 11.1701 47.6935 12.9156 47.6935H39.4838C41.2294 47.6935 42.6495 46.2733 42.6495 44.5278V8.80319C42.6495 7.05769 41.2294 5.63756 39.4838 5.63756ZM33.6576 42.8501V40.4522C33.6576 39.4069 34.5078 38.5566 35.5527 38.5566H37.9505L33.6576 42.8501ZM18.9965 6.40594C18.9965 5.96353 19.3562 5.60369 19.7984 5.60369H32.601C33.0433 5.60369 33.403 5.96353 33.403 6.40594V8.73663C33.403 9.17903 33.0433 9.53887 32.601 9.53887H19.7984C19.3562 9.53887 18.9965 9.17903 18.9965 8.73663V6.40594ZM17.7313 10.0684C17.7313 9.89134 17.8049 9.73137 17.9229 9.61679C18.2544 10.3206 18.9703 10.8091 19.7984 10.8091H32.601C33.4291 10.8091 34.1451 10.3206 34.4766 9.61679C34.5946 9.73137 34.6682 9.89134 34.6682 10.0684V11.8301C34.6682 12.1776 34.3856 12.4602 34.0382 12.4602H18.3613C18.0139 12.4602 17.7313 12.1775 17.7313 11.8301V10.0684ZM16.5371 31.0302C16.5371 31.8006 17.164 32.4275 17.9345 32.4275H22.5158C23.2863 32.4275 23.9132 31.8006 23.9132 31.0302V29.4229C23.9132 29.0721 23.6288 28.7878 23.278 28.7878C22.9272 28.7878 22.6429 29.0721 22.6429 29.4229V31.0302C22.6429 31.1002 22.5859 31.1572 22.5158 31.1572H17.9345C17.8644 31.1572 17.8074 31.1002 17.8074 31.0302V26.4488C17.8074 26.3788 17.8644 26.3218 17.9345 26.3218H20.0047C20.3555 26.3218 20.6399 26.0375 20.6399 25.6866C20.6399 25.3358 20.3555 25.0515 20.0047 25.0515H17.9345C17.164 25.0515 16.5371 25.6783 16.5371 26.4488V31.0302ZM26.168 34.9681H35.2272C35.578 34.9681 35.8623 34.6838 35.8623 34.333C35.8623 33.9821 35.578 33.6978 35.2272 33.6978H26.168C25.8172 33.6978 25.5328 33.9821 25.5328 34.333C25.5328 34.6838 25.8172 34.9681 26.168 34.9681ZM16.5371 39.6764C16.5371 40.4469 17.164 41.0738 17.9345 41.0738H22.5158C23.2863 41.0738 23.9132 40.4469 23.9132 39.6764V38.0693C23.9132 37.7184 23.6288 37.4342 23.278 37.4342C22.9272 37.4342 22.6429 37.7184 22.6429 38.0693V39.6764C22.6429 39.7465 22.5859 39.8035 22.5158 39.8035H17.9345C17.8644 39.8035 17.8074 39.7465 17.8074 39.6764V35.0952C17.8074 35.0251 17.8644 34.9681 17.9345 34.9681H20.0047C20.3555 34.9681 20.6399 34.6838 20.6399 34.333C20.6399 33.9821 20.3555 33.6978 20.0047 33.6978H17.9345C17.164 33.6978 16.5371 34.3247 16.5371 35.0952V39.6764ZM26.168 37.5088H31.4162C31.767 37.5088 32.0514 37.2245 32.0514 36.8736C32.0514 36.5227 31.767 36.2384 31.4162 36.2384H26.168C25.8172 36.2384 25.5328 36.5227 25.5328 36.8736C25.5328 37.2245 25.8172 37.5088 26.168 37.5088ZM26.168 28.8625H31.4162C31.767 28.8625 32.0514 28.5782 32.0514 28.2273C32.0514 27.8765 31.767 27.5922 31.4162 27.5922H26.168C25.8172 27.5922 25.5328 27.8765 25.5328 28.2273C25.5328 28.5782 25.8172 28.8625 26.168 28.8625ZM26.168 26.3219H35.2272C35.578 26.3219 35.8623 26.0376 35.8623 25.6867C35.8623 25.3358 35.578 25.0515 35.2272 25.0515H26.168C25.8172 25.0515 25.5328 25.3358 25.5328 25.6867C25.5328 26.0376 25.8172 26.3219 26.168 26.3219ZM26.168 20.2161H35.2272C35.578 20.2161 35.8623 19.9318 35.8623 19.581C35.8623 19.2301 35.578 18.9458 35.2272 18.9458H26.168C25.8172 18.9458 25.5328 19.2301 25.5328 19.581C25.5328 19.9318 25.8172 20.2161 26.168 20.2161ZM26.168 17.6755H35.2272C35.578 17.6755 35.8623 17.3912 35.8623 17.0403C35.8623 16.6895 35.578 16.4052 35.2272 16.4052H26.168C25.8172 16.4052 25.5328 16.6895 25.5328 17.0403C25.5328 17.3912 25.8172 17.6755 26.168 17.6755Z" fill="#2E4369"/>
<path d="M33.6576 42.8501V40.4522C33.6576 39.4069 34.5078 38.5566 35.5527 38.5566H37.9505L33.6576 42.8501Z" fill="#1684D4"/>
<path d="M17.7313 10.0684C17.7313 9.89134 17.8049 9.73137 17.9229 9.61679C18.2544 10.3206 18.9703 10.8091 19.7984 10.8091H32.601C33.4291 10.8091 34.1451 10.3206 34.4766 9.61679C34.5946 9.73137 34.6682 9.89134 34.6682 10.0684V11.8301C34.6682 12.1776 34.3856 12.4602 34.0382 12.4602H18.3613C18.0139 12.4602 17.7313 12.1775 17.7313 11.8301V10.0684Z" fill="#1684D4"/>
<path d="M18.9965 6.40594C18.9965 5.96353 19.3562 5.60369 19.7984 5.60369H32.601C33.0433 5.60369 33.403 5.96353 33.403 6.40594V8.73663C33.403 9.17903 33.0433 9.53887 32.601 9.53887H19.7984C19.3562 9.53887 18.9965 9.17903 18.9965 8.73663V6.40594Z" fill="#1684D4"/>
<path fill-rule="evenodd" clip-rule="evenodd" d="M31.4162 28.8625H26.168C25.8172 28.8625 25.5328 28.5782 25.5328 28.2273C25.5328 27.8765 25.8172 27.5922 26.168 27.5922H31.4162C31.767 27.5922 32.0514 27.8765 32.0514 28.2273C32.0514 28.5782 31.767 28.8625 31.4162 28.8625ZM35.2272 26.3219H26.168C25.8172 26.3219 25.5328 26.0376 25.5328 25.6867C25.5328 25.3358 25.8172 25.0515 26.168 25.0515H35.2272C35.578 25.0515 35.8623 25.3358 35.8623 25.6867C35.8623 26.0376 35.578 26.3219 35.2272 26.3219Z" fill="#1684D4"/>
</svg>
