<svg width="52" height="52" viewBox="0 0 52 52" fill="none" xmlns="http://www.w3.org/2000/svg">
<path d="M44.9484 27.7225C44.4497 27.4732 44.1159 27.0041 44.0386 26.4642H44.0576C44.8817 26.4642 45.5523 25.7937 45.5523 24.9696V22.9198C45.5523 22.0957 44.8817 21.4251 44.0576 21.4251H31.0756C30.2515 21.4251 29.5809 22.0957 29.5809 22.9198V24.9696C29.5809 25.7063 30.1173 26.3188 30.8197 26.4407C30.7488 26.9905 30.413 27.4697 29.9071 27.7226C28.8984 28.2269 28.2719 29.2408 28.2719 30.3685V44.8596C28.2719 46.6257 29.7086 48.0625 31.4747 48.0625H43.3806C45.1467 48.0625 46.5834 46.6257 46.5834 44.8596V30.3683C46.5836 29.2407 45.957 28.2268 44.9484 27.7225ZM30.8621 22.9197C30.8621 22.8019 30.9579 22.7062 31.0756 22.7062H44.0577C44.1755 22.7062 44.2712 22.8019 44.2712 22.9197V24.9695C44.2712 25.0873 44.1755 25.183 44.0577 25.183H31.0756C30.9579 25.183 30.8621 25.0873 30.8621 24.9695V22.9197ZM45.3025 44.8596C45.3025 45.9192 44.4404 46.7813 43.3808 46.7813H31.4748C30.4153 46.7813 29.5532 45.9192 29.5532 44.8596V42.5736H45.3025V44.8596ZM45.3025 32.1002H41.6599C41.306 32.1002 41.0193 32.387 41.0193 32.7408C41.0193 33.0946 41.306 33.3814 41.6599 33.3814H45.3025V41.2925H29.5532V33.3814H38.6706C39.0244 33.3814 39.3111 33.0946 39.3111 32.7408C39.3111 32.387 39.0244 32.1002 38.6706 32.1002H29.5532V30.3683C29.5532 29.729 29.9084 29.1542 30.4802 28.8684C31.4161 28.4004 32.0221 27.4935 32.1047 26.4642H42.7507C42.8333 27.4935 43.4394 28.4004 44.3753 28.8684C44.9471 29.1543 45.3023 29.729 45.3023 30.3683L45.3025 32.1002ZM16.7743 26.8306H15.2369C14.6011 26.8306 14.0839 27.3479 14.0839 27.9836V30.5459H11.5217C10.8859 30.5459 10.3686 31.0631 10.3686 31.6989V33.2363C10.3686 33.872 10.8859 34.3893 11.5217 34.3893H14.0839V36.9515C14.0839 37.5873 14.6011 38.1045 15.2369 38.1045H16.7743C17.4101 38.1045 17.9273 37.5873 17.9273 36.9515V34.3893H20.4895C21.1253 34.3893 21.6425 33.872 21.6425 33.2363V31.6989C21.6425 31.0631 21.1253 30.5459 20.4895 30.5459H17.9273V27.9836C17.9273 27.3479 17.4101 26.8306 16.7743 26.8306ZM20.3614 31.827V33.1081H17.5429C17.0484 33.1081 16.6462 33.5104 16.6462 34.0049V36.8234H15.365V34.0049C15.365 33.5104 14.9628 33.1081 14.4682 33.1081H11.6498V31.827H14.4682C14.9628 31.827 15.365 31.4247 15.365 30.9302V28.1117H16.6462V30.9302C16.6462 31.4247 17.0484 31.827 17.5429 31.827H20.3614ZM20.9897 13.0672V11.1775C21.7765 11.091 22.3908 10.425 22.3908 9.6181V6.83165C22.3908 5.4541 21.2654 4.33337 19.882 4.33337H12.129C10.7456 4.33337 9.62021 5.4541 9.62021 6.83165V9.6181C9.62021 10.425 10.2345 11.0911 11.0213 11.1775V13.0672L6.42645 17.6362C5.77529 18.2836 5.41675 19.1446 5.41675 20.0608V29.9054C5.41675 30.2593 5.70346 30.546 6.05731 30.546C6.41116 30.546 6.69787 30.2593 6.69787 29.9054V24.3856H25.3131V40.5496H6.69787V32.8946C6.69787 32.5408 6.41116 32.2541 6.05731 32.2541C5.70346 32.2541 5.41675 32.5408 5.41675 32.8946V44.6354C5.41675 46.5251 6.96119 48.0625 8.85965 48.0625H23.1515C25.0499 48.0625 26.5944 46.5251 26.5944 44.6354V20.0608C26.5944 19.1447 26.2358 18.2836 25.5847 17.6362L20.9897 13.0672ZM25.3131 44.6354C25.3131 45.8186 24.3434 46.7813 23.1514 46.7813H8.85965C7.6676 46.7813 6.69787 45.8187 6.69787 44.6354V41.8307H25.3131V44.6354ZM10.9013 9.6181V6.83165C10.9013 6.16052 11.452 5.6145 12.129 5.6145H19.882C20.559 5.6145 21.1097 6.16052 21.1097 6.83165V9.6181C21.1097 9.77705 20.978 9.90644 20.8161 9.90644H11.1949C11.033 9.90644 10.9013 9.77705 10.9013 9.6181ZM19.7086 11.1876V12.693H12.3025V11.1876H19.7086ZM25.3131 23.1044H6.69787V20.0607C6.69787 19.4882 6.92233 18.9497 7.32972 18.5446L11.9261 13.974H20.0849L24.6814 18.5446C25.0889 18.9497 25.3131 19.4882 25.3131 20.0607V23.1044Z" fill="#2E4369"/>
<path d="M20.3614 31.827V33.1081H17.5429C17.0484 33.1081 16.6462 33.5104 16.6462 34.0049V36.8234H15.365V34.0049C15.365 33.5104 14.9628 33.1081 14.4682 33.1081H11.6498V31.827H14.4682C14.9628 31.827 15.365 31.4247 15.365 30.9302V28.1118H16.6462V30.9302C16.6462 31.4247 17.0484 31.827 17.5429 31.827H20.3614Z" fill="#E34444"/>
<path d="M10.9013 9.6181V6.83165C10.9013 6.16052 11.452 5.6145 12.129 5.6145H19.882C20.559 5.6145 21.1097 6.16052 21.1097 6.83165V9.6181C21.1097 9.77705 20.978 9.90644 20.8161 9.90644H11.1949C11.033 9.90644 10.9013 9.77705 10.9013 9.6181Z" fill="#E34444"/>
<path fill-rule="evenodd" clip-rule="evenodd" d="M41.6599 33.3814H38.6706H29.5532V41.2925H45.3025V33.3814H41.6599Z" fill="#E34444"/>
</svg>
