<!-- Generated by IcoMoon.io -->
<svg version="1.1" xmlns="http://www.w3.org/2000/svg" width="14" height="28" viewBox="0 0 14 28">
<title>inr</title>
<path d="M14.031 7.344v1.594c0 0.281-0.219 0.5-0.5 0.5h-2.625c-0.484 3-2.781 4.953-6.328 5.375 2.328 2.484 4.813 5.484 7.172 8.375 0.125 0.141 0.156 0.359 0.063 0.531-0.078 0.172-0.25 0.281-0.453 0.281h-3.047c-0.156 0-0.297-0.063-0.391-0.187-2.516-3.016-4.828-5.781-7.781-8.922-0.094-0.094-0.141-0.219-0.141-0.344v-1.984c0-0.266 0.219-0.5 0.5-0.5h1.75c2.75 0 4.469-0.922 4.922-2.625h-6.672c-0.281 0-0.5-0.219-0.5-0.5v-1.594c0-0.281 0.219-0.5 0.5-0.5h6.453c-0.594-1.172-2-1.766-4.188-1.766h-2.266c-0.281 0-0.5-0.234-0.5-0.5v-2.078c0-0.281 0.219-0.5 0.5-0.5h13c0.281 0 0.5 0.219 0.5 0.5v1.594c0 0.281-0.219 0.5-0.5 0.5h-3.641c0.5 0.641 0.828 1.391 1 2.25h2.672c0.281 0 0.5 0.219 0.5 0.5z"></path>
</svg>
